<svg width="53" height="52" viewBox="0 0 53 52" fill="none" xmlns="http://www.w3.org/2000/svg">
<circle cx="26" cy="26" r="25" fill="#2F2F2F"/>
<path d="M36.1308 23.9329L36.1248 23.8807C36.1137 23.8154 36.0939 23.7523 36.0658 23.6936L33.1246 18.423C33.1246 18.423 32.7495 17.9062 32.6604 17.9062H20.1267L16.3574 23.5148L16.3128 23.5665L16.3068 23.5908C16.2749 23.6477 16.2488 23.7084 16.2288 23.7717L16.2135 23.8218C16.17 23.9822 16.1721 24.1537 16.2195 24.3127L16.2371 24.3691C16.2608 24.4357 16.2901 24.4967 16.3244 24.551L25.4373 37.4017L25.4559 37.4311C25.5027 37.4983 25.5598 37.5577 25.6295 37.612L25.6824 37.6487C25.7344 37.6849 25.7887 37.7138 25.8676 37.7458L25.9191 37.765C26.0083 37.7903 26.0858 37.8022 26.1615 37.8022C26.238 37.8022 26.3128 37.7908 26.4135 37.7619L26.4753 37.7376C26.5356 37.7138 26.5899 37.6844 26.6554 37.6394L26.6962 37.611C26.7663 37.5557 26.8225 37.4957 26.8536 37.4487L35.9781 24.5846C36.0588 24.4647 36.1114 24.3244 36.1313 24.1763L36.1382 24.1096L36.1419 24.0569L36.1308 23.9329V23.9329ZM31.238 23.5908L32.5369 20.9744L33.8348 23.5908H31.238ZM30.4591 25.1411H33.5405L28.4045 32.3838L30.4591 25.1411ZM29.6969 22.8063L27.821 19.9734H31.103L29.6969 22.8063ZM23.6882 25.1411H28.6361L26.1615 33.8628L23.6882 25.1411ZM24.1788 23.5908L26.1615 20.5956L28.1441 23.5908H24.1788ZM22.7825 22.5717L21.9228 19.9734H24.5024L22.7825 22.5717V22.5717ZM23.9193 32.3843L18.7829 25.1411H21.8647L23.9193 32.3843ZM20.4354 20.9924L21.2956 23.5908H18.7156L20.4354 20.9924V20.9924Z" fill="white"/>
<path d="M44.5497 44.4793C39.5199 49.4931 33.3644 52 26.0832 52C18.8019 52 12.6224 49.4931 7.54471 44.4793C2.5149 39.4178 0 33.258 0 26C0 18.742 2.5149 12.6061 7.54471 7.59229C12.6224 2.53076 18.8019 0 26.0832 0C33.3644 0 39.5199 2.53076 44.5497 7.59229C49.6275 12.6061 52.1663 18.742 52.1663 26C52.1663 33.258 49.6275 39.4178 44.5497 44.4793ZM13.3649 38.8926C16.8139 42.2828 21.0533 43.978 26.0832 43.978C31.113 43.978 35.3284 42.2828 38.7295 38.8926C42.1785 35.4545 43.9031 31.157 43.9031 26C43.9031 20.843 42.1785 16.5693 38.7295 13.1791C35.3284 9.74105 31.113 8.02204 26.0832 8.02204C21.0533 8.02204 16.8139 9.74105 13.3649 13.1791C9.96381 16.5693 8.26326 20.843 8.26326 26C8.26326 31.157 9.96381 35.4545 13.3649 38.8926Z" fill="white"/>
</svg>
